<svg viewBox="0 0 423 71"  xmlns="http://www.w3.org/2000/svg">
<symbol width="423" height="71" id="logo">
<title>sonniesedge</title>
<path d="M28.238 28.914h-5.203l-1.125-4.57c-.844-.797-1.904-1.436-3.181-1.916-1.278-.48-2.725-.721-4.342-.721-2.461 0-4.29.54-5.485 1.617-1.195 1.078-1.793 2.38-1.793 3.903 0 1.5.528 2.683 1.582 3.55 1.055.868 3.2 1.641 6.434 2.32 4.805 1.032 8.379 2.432 10.723 4.202 2.343 1.77 3.515 4.142 3.515 7.119 0 3.375-1.365 6.105-4.095 8.191-2.73 2.086-6.3 3.13-10.706 3.13-2.882 0-5.472-.335-7.769-1.003-2.297-.668-4.348-1.634-6.152-2.9l-.036-8.684H5.81l1.3 5.098c.797.727 1.881 1.254 3.252 1.582 1.371.328 2.772.492 4.201.492 2.461 0 4.39-.498 5.784-1.494 1.394-.996 2.091-2.303 2.091-3.92 0-1.523-.58-2.777-1.74-3.762-1.16-.984-3.357-1.84-6.592-2.566-4.617-1.008-8.097-2.379-10.44-4.113C1.32 32.734.147 30.39.147 27.437c0-3.093 1.319-5.73 3.956-7.91 2.636-2.18 6.064-3.27 10.283-3.27 2.883 0 5.472.376 7.77 1.126 2.296.75 4.206 1.793 5.73 3.129l.351 8.402zm7.63 6.715c0-5.625 1.523-10.26 4.57-13.904 3.046-3.645 7.183-5.467 12.41-5.467 5.25 0 9.404 1.816 12.463 5.449 3.058 3.633 4.587 8.273 4.587 13.922v.773c0 5.672-1.523 10.313-4.57 13.922-3.047 3.61-7.183 5.414-12.41 5.414-5.273 0-9.434-1.81-12.48-5.431-3.047-3.621-4.57-8.256-4.57-13.905v-.773zm6.925.773c0 4.032.85 7.36 2.549 9.985 1.699 2.625 4.224 3.937 7.576 3.937 3.281 0 5.777-1.312 7.488-3.937 1.711-2.625 2.567-5.953 2.567-9.985v-.773c0-3.984-.856-7.3-2.567-9.95-1.71-2.648-4.23-3.972-7.558-3.972-3.328 0-5.836 1.324-7.524 3.973-1.687 2.648-2.531 5.965-2.531 9.949v.773zM75.207 50.57l5.73-.984V22.41l-5.73-.984V16.96h11.918l.492 5.66c1.266-2.016 2.854-3.58 4.764-4.693 1.91-1.114 4.084-1.67 6.521-1.67 4.102 0 7.278 1.201 9.528 3.603 2.25 2.403 3.375 6.112 3.375 11.127v18.598l5.73.984V55H99.148v-4.43l5.73-.984V31.129c0-3.352-.661-5.73-1.985-7.137-1.325-1.406-3.346-2.11-6.065-2.11-1.992 0-3.756.481-5.29 1.442-1.536.961-2.76 2.274-3.675 3.938v22.324l5.73.984V55H75.208v-4.43zm46.336 0l5.73-.984V22.41l-5.73-.984V16.96h11.918l.492 5.66c1.266-2.016 2.854-3.58 4.764-4.693 1.91-1.114 4.084-1.67 6.521-1.67 4.102 0 7.278 1.201 9.528 3.603 2.25 2.403 3.375 6.112 3.375 11.127v18.598l5.73.984V55h-18.387v-4.43l5.73-.984V31.129c0-3.352-.661-5.73-1.985-7.137-1.325-1.406-3.346-2.11-6.065-2.11-1.992 0-3.756.481-5.291 1.442-1.535.961-2.76 2.274-3.674 3.938v22.324l5.73.984V55h-18.386v-4.43zm47.355 0l5.73-.984V22.41l-5.73-.984V16.96h12.657v32.625l5.73.984V55h-18.387v-4.43zm12.657-43.347h-6.926V.156h6.926v7.067zm28.37 48.515c-5.296 0-9.509-1.763-12.638-5.29-3.129-3.528-4.693-8.104-4.693-13.73v-1.546c0-5.414 1.611-9.92 4.834-13.518 3.222-3.597 7.037-5.396 11.443-5.396 5.11 0 8.983 1.547 11.62 4.64 2.636 3.094 3.954 7.22 3.954 12.375v4.325h-24.68l-.105.175c.07 3.657.996 6.663 2.778 9.018 1.78 2.355 4.277 3.533 7.488 3.533 2.344 0 4.4-.334 6.17-1.002 1.77-.668 3.299-1.588 4.588-2.76l2.707 4.5c-1.36 1.313-3.159 2.42-5.397 3.323-2.238.902-4.928 1.353-8.068 1.353zm-1.054-34.031c-2.32 0-4.3.979-5.941 2.936-1.64 1.957-2.649 4.412-3.024 7.365l.07.176h17.544v-.914c0-2.72-.727-4.993-2.18-6.82-1.453-1.829-3.61-2.743-6.469-2.743zm51.504 7.207h-5.203l-1.125-4.57c-.844-.797-1.904-1.436-3.182-1.916-1.277-.48-2.724-.721-4.342-.721-2.46 0-4.289.54-5.484 1.617-1.195 1.078-1.793 2.38-1.793 3.903 0 1.5.527 2.683 1.582 3.55 1.055.868 3.2 1.641 6.434 2.32 4.804 1.032 8.379 2.432 10.722 4.202 2.344 1.77 3.516 4.142 3.516 7.119 0 3.375-1.365 6.105-4.096 8.191-2.73 2.086-6.299 3.13-10.705 3.13-2.883 0-5.472-.335-7.77-1.003-2.296-.668-4.347-1.634-6.152-2.9l-.035-8.684h5.203l1.301 5.098c.797.727 1.88 1.254 3.252 1.582 1.371.328 2.772.492 4.201.492 2.461 0 4.389-.498 5.783-1.494 1.395-.996 2.092-2.303 2.092-3.92 0-1.523-.58-2.777-1.74-3.762-1.16-.984-3.357-1.84-6.592-2.566-4.617-1.008-8.097-2.379-10.441-4.113-2.344-1.735-3.516-4.078-3.516-7.032 0-3.093 1.319-5.73 3.955-7.91 2.637-2.18 6.065-3.27 10.283-3.27 2.883 0 5.473.376 7.77 1.126 2.297.75 4.207 1.793 5.73 3.129l.352 8.402zm24.96 26.824c-5.296 0-9.509-1.763-12.638-5.29-3.129-3.528-4.693-8.104-4.693-13.73v-1.546c0-5.414 1.611-9.92 4.834-13.518 3.223-3.597 7.037-5.396 11.443-5.396 5.11 0 8.983 1.547 11.62 4.64 2.636 3.094 3.954 7.22 3.954 12.375v4.325h-24.68l-.105.175c.07 3.657.996 6.663 2.778 9.018 1.78 2.355 4.277 3.533 7.488 3.533 2.344 0 4.4-.334 6.17-1.002 1.77-.668 3.299-1.588 4.588-2.76l2.707 4.5c-1.36 1.313-3.158 2.42-5.397 3.323-2.238.902-4.927 1.353-8.068 1.353zm-1.054-34.031c-2.32 0-4.3.979-5.941 2.936-1.64 1.957-2.649 4.412-3.024 7.365l.07.176h17.544v-.914c0-2.72-.727-4.993-2.18-6.82-1.453-1.829-3.61-2.743-6.469-2.743zm48.024 28.758c-1.243 1.734-2.76 3.047-4.553 3.937-1.793.891-3.873 1.336-6.24 1.336-4.64 0-8.268-1.681-10.881-5.045-2.613-3.363-3.92-7.787-3.92-13.271v-.738c0-6.118 1.307-11.051 3.92-14.801s6.264-5.625 10.951-5.625c2.25 0 4.236.416 5.959 1.248 1.723.832 3.193 2.033 4.412 3.603V5.605l-5.73-.984V.156h12.656v49.43l5.73.984V55h-11.742l-.562-4.535zm-18.668-13.043c0 3.82.785 6.89 2.355 9.21 1.57 2.321 3.996 3.481 7.278 3.481 2.062 0 3.796-.468 5.203-1.406 1.406-.937 2.566-2.262 3.48-3.973V27.086c-.89-1.594-2.05-2.86-3.48-3.797-1.43-.937-3.141-1.406-5.133-1.406-3.305 0-5.748 1.37-7.33 4.113-1.582 2.742-2.373 6.305-2.373 10.688v.738zm36.281-.738c0-6.118 1.336-11.051 4.008-14.801 2.672-3.75 6.363-5.625 11.074-5.625 2.39 0 4.488.469 6.293 1.406 1.805.938 3.316 2.297 4.535 4.078l.633-4.781h5.836v37.547c0 4.922-1.371 8.795-4.113 11.619-2.743 2.824-6.645 4.236-11.707 4.236-1.829 0-3.809-.252-5.942-.756-2.133-.503-4.008-1.189-5.625-2.056l1.793-5.38c1.29.68 2.813 1.243 4.57 1.688 1.758.446 3.47.668 5.133.668 3.094 0 5.362-.867 6.803-2.601 1.441-1.735 2.162-4.207 2.162-7.418v-3.621c-1.242 1.593-2.73 2.8-4.465 3.62-1.734.821-3.726 1.231-5.976 1.231-4.664 0-8.332-1.687-11.004-5.062-2.672-3.375-4.008-7.793-4.008-13.254v-.738zm6.926.738c0 3.82.808 6.89 2.426 9.21 1.617 2.321 4.078 3.481 7.382 3.481 2.086 0 3.832-.474 5.239-1.424 1.406-.949 2.566-2.29 3.48-4.025V27.156c-.89-1.617-2.05-2.9-3.48-3.85-1.43-.949-3.153-1.423-5.168-1.423-3.305 0-5.778 1.383-7.418 4.148-1.64 2.766-2.461 6.317-2.461 10.653v.738zm51.152 18.316c-5.297 0-9.51-1.763-12.639-5.29-3.128-3.528-4.693-8.104-4.693-13.73v-1.546c0-5.414 1.611-9.92 4.834-13.518 3.223-3.597 7.037-5.396 11.443-5.396 5.11 0 8.983 1.547 11.62 4.64 2.636 3.094 3.955 7.22 3.955 12.375v4.325h-24.68l-.106.175c.07 3.657.997 6.663 2.778 9.018 1.781 2.355 4.277 3.533 7.488 3.533 2.344 0 4.4-.334 6.17-1.002 1.77-.668 3.299-1.588 4.588-2.76l2.707 4.5c-1.36 1.313-3.158 2.42-5.397 3.323-2.238.902-4.927 1.353-8.068 1.353zm-1.055-34.031c-2.32 0-4.3.979-5.941 2.936-1.64 1.957-2.648 4.412-3.023 7.365l.07.176h17.543v-.914c0-2.72-.727-4.993-2.18-6.82-1.453-1.829-3.61-2.743-6.469-2.743z" fill="#D79696" fill-rule="evenodd"/>
</symbol>
</svg>
