<svg width="218" height="62" viewBox="0 0 218 62" xmlns="http://www.w3.org/2000/svg"><title>sonniesedge</title><g fill="none" fill-rule="evenodd"><path d="M19.521 37.744c0 1.793-.667 3.176-2.003 4.149-1.336.972-3.211 1.459-5.625 1.459-2.555 0-4.547-.405-5.977-1.213v-2.707c.926.468 1.919.838 2.98 1.107 1.06.27 2.083.404 3.067.404 1.523 0 2.695-.243 3.516-.73.82-.485 1.23-1.227 1.23-2.223 0-.75-.325-1.391-.976-1.925-.65-.533-1.919-1.163-3.805-1.89-1.793-.667-3.068-1.25-3.824-1.748-.755-.498-1.318-1.064-1.687-1.697-.37-.632-.554-1.388-.554-2.267 0-1.57.639-2.81 1.916-3.718 1.278-.908 3.03-1.362 5.256-1.362 2.074 0 4.102.422 6.082 1.265l-1.037 2.373c-1.934-.796-3.685-1.195-5.256-1.195-1.383 0-2.426.217-3.129.65-.703.434-1.054 1.032-1.054 1.794 0 .515.131.955.395 1.318.264.363.689.709 1.275 1.037.585.328 1.71.803 3.375 1.424 2.285.832 3.829 1.67 4.631 2.514.803.843 1.204 1.904 1.204 3.181zm21.375-4.394c0 3.14-.79 5.592-2.373 7.356-1.582 1.764-3.767 2.646-6.556 2.646-1.723 0-3.252-.405-4.588-1.213-1.336-.809-2.367-1.97-3.094-3.48-.726-1.513-1.09-3.282-1.09-5.31 0-3.14.785-5.586 2.356-7.338 1.57-1.752 3.75-2.628 6.539-2.628 2.695 0 4.837.896 6.425 2.69 1.588 1.792 2.381 4.218 2.381 7.277zm-14.677 0c0 2.46.492 4.336 1.476 5.625.985 1.289 2.432 1.933 4.342 1.933 1.91 0 3.36-.641 4.35-1.925.99-1.283 1.486-3.16 1.486-5.633 0-2.45-.495-4.31-1.485-5.581-.99-1.272-2.452-1.908-4.386-1.908-1.91 0-3.352.627-4.324 1.881-.973 1.254-1.46 3.123-1.46 5.608zM59.195 43V30.537c0-1.57-.357-2.742-1.072-3.516-.715-.773-1.834-1.16-3.357-1.16-2.016 0-3.493.545-4.43 1.635-.938 1.09-1.406 2.889-1.406 5.397V43h-2.918V23.734h2.373l.474 2.637H49c.598-.95 1.436-1.684 2.514-2.206 1.078-.521 2.279-.782 3.603-.782 2.32 0 4.067.56 5.238 1.679 1.172 1.119 1.758 2.909 1.758 5.37V43h-2.918zm22.096 0V30.537c0-1.57-.357-2.742-1.072-3.516-.715-.773-1.834-1.16-3.358-1.16-2.015 0-3.492.545-4.43 1.635-.937 1.09-1.406 2.889-1.406 5.397V43h-2.918V23.734h2.373l.475 2.637h.14c.598-.95 1.436-1.684 2.514-2.206 1.079-.521 2.28-.782 3.604-.782 2.32 0 4.066.56 5.238 1.679 1.172 1.119 1.758 2.909 1.758 5.37V43h-2.918zm11.83 0h-2.918V23.734h2.918V43zm-3.164-24.486c0-.668.164-1.158.492-1.468.328-.31.738-.466 1.23-.466.47 0 .874.158 1.214.475.34.316.51.802.51 1.459 0 .656-.17 1.145-.51 1.467-.34.323-.745.484-1.213.484-.493 0-.903-.161-1.23-.484-.329-.322-.493-.811-.493-1.467zm17.49 24.838c-2.847 0-5.094-.868-6.74-2.602-1.647-1.734-2.47-4.143-2.47-7.225 0-3.105.764-5.572 2.293-7.4 1.53-1.828 3.583-2.742 6.161-2.742 2.414 0 4.325.794 5.73 2.382 1.407 1.588 2.11 3.682 2.11 6.284v1.846H101.26c.058 2.261.63 3.978 1.714 5.15 1.084 1.172 2.61 1.758 4.579 1.758 2.074 0 4.125-.434 6.152-1.301v2.602c-1.031.445-2.007.764-2.927.958-.92.193-2.03.29-3.33.29zm-.79-17.526c-1.548 0-2.781.504-3.7 1.512-.92 1.008-1.463 2.402-1.627 4.183h10.072c0-1.84-.41-3.249-1.23-4.227-.82-.979-1.992-1.468-3.516-1.468zm25.277 11.918c0 1.793-.668 3.176-2.004 4.149-1.336.972-3.211 1.459-5.625 1.459-2.555 0-4.547-.405-5.977-1.213v-2.707c.926.468 1.92.838 2.98 1.107 1.06.27 2.083.404 3.067.404 1.523 0 2.695-.243 3.516-.73.82-.485 1.23-1.227 1.23-2.223 0-.75-.325-1.391-.975-1.925-.65-.533-1.92-1.163-3.806-1.89-1.793-.667-3.068-1.25-3.823-1.748-.756-.498-1.319-1.064-1.688-1.697-.369-.632-.554-1.388-.554-2.267 0-1.57.64-2.81 1.916-3.718 1.278-.908 3.03-1.362 5.256-1.362 2.074 0 4.102.422 6.082 1.265l-1.037 2.373c-1.933-.796-3.685-1.195-5.256-1.195-1.382 0-2.425.217-3.129.65-.703.434-1.054 1.032-1.054 1.794 0 .515.132.955.395 1.318.264.363.689.709 1.275 1.037.586.328 1.71.803 3.375 1.424 2.285.832 3.829 1.67 4.631 2.514.803.843 1.205 1.904 1.205 3.181zm12.884 5.608c-2.847 0-5.094-.868-6.74-2.602-1.647-1.734-2.47-4.143-2.47-7.225 0-3.105.764-5.572 2.293-7.4 1.53-1.828 3.583-2.742 6.161-2.742 2.415 0 4.325.794 5.731 2.382 1.406 1.588 2.11 3.682 2.11 6.284v1.846H138.63c.058 2.261.63 3.978 1.714 5.15 1.084 1.172 2.61 1.758 4.579 1.758 2.074 0 4.125-.434 6.152-1.301v2.602c-1.031.445-2.007.764-2.927.958-.92.193-2.03.29-3.33.29zm-.79-17.526c-1.548 0-2.78.504-3.7 1.512-.92 1.008-1.463 2.402-1.627 4.183h10.072c0-1.84-.41-3.249-1.23-4.227-.82-.979-1.992-1.468-3.516-1.468zm25.962 14.59h-.158c-1.348 1.957-3.363 2.936-6.047 2.936-2.52 0-4.48-.862-5.88-2.584-1.4-1.723-2.1-4.172-2.1-7.348s.703-5.643 2.11-7.4c1.405-1.758 3.362-2.637 5.87-2.637 2.613 0 4.617.949 6.012 2.847h.228l-.123-1.388-.07-1.354v-7.84h2.918V43h-2.373l-.387-2.584zm-5.836.492c1.992 0 3.437-.542 4.333-1.626.897-1.084 1.345-2.833 1.345-5.247v-.615c0-2.73-.454-4.679-1.362-5.845-.908-1.166-2.359-1.749-4.35-1.749-1.712 0-3.021.665-3.93 1.995-.908 1.33-1.362 3.208-1.362 5.634 0 2.461.451 4.318 1.354 5.572.902 1.254 2.226 1.881 3.972 1.881zm30.551-17.174v1.846l-3.568.422c.328.41.62.946.879 1.608.257.662.386 1.41.386 2.242 0 1.886-.644 3.392-1.933 4.517-1.29 1.125-3.059 1.688-5.309 1.688a8.84 8.84 0 0 1-1.617-.141c-1.242.656-1.863 1.482-1.863 2.479 0 .527.216.917.65 1.168.434.252 1.178.378 2.232.378h3.41c2.087 0 3.69.44 4.808 1.319 1.12.879 1.679 2.156 1.679 3.832 0 2.133-.855 3.759-2.566 4.878-1.711 1.119-4.207 1.678-7.489 1.678-2.52 0-4.462-.468-5.827-1.406-1.365-.937-2.048-2.262-2.048-3.972 0-1.172.375-2.186 1.125-3.041.75-.856 1.805-1.436 3.164-1.74a3.052 3.052 0 0 1-1.239-1.038c-.334-.469-.5-1.013-.5-1.635 0-.703.187-1.318.562-1.845.375-.528.966-1.037 1.775-1.53-.996-.41-1.808-1.107-2.435-2.091-.627-.985-.94-2.11-.94-3.375 0-2.11.633-3.736 1.898-4.878 1.266-1.143 3.059-1.714 5.38-1.714 1.007 0 1.915.117 2.724.351h6.662zm-15.363 22.5c0 1.043.44 1.834 1.318 2.373.88.54 2.139.809 3.78.809 2.449 0 4.262-.366 5.44-1.099 1.178-.732 1.766-1.725 1.766-2.98 0-1.042-.322-1.766-.966-2.17-.645-.404-1.858-.606-3.639-.606h-3.498c-1.324 0-2.355.316-3.094.949-.738.633-1.107 1.54-1.107 2.724zm1.582-16.33c0 1.348.38 2.367 1.142 3.059.762.691 1.823 1.037 3.182 1.037 2.848 0 4.272-1.383 4.272-4.148 0-2.895-1.442-4.342-4.325-4.342-1.37 0-2.425.369-3.164 1.107-.738.738-1.107 1.834-1.107 3.287zm25.875 13.448c-2.848 0-5.095-.868-6.741-2.602-1.647-1.734-2.47-4.143-2.47-7.225 0-3.105.765-5.572 2.294-7.4 1.53-1.828 3.583-2.742 6.161-2.742 2.414 0 4.324.794 5.73 2.382 1.407 1.588 2.11 3.682 2.11 6.284v1.846H200.61c.059 2.261.63 3.978 1.714 5.15 1.084 1.172 2.61 1.758 4.58 1.758 2.074 0 4.124-.434 6.152-1.301v2.602c-1.032.445-2.007.764-2.927.958-.92.193-2.03.29-3.331.29zm-.791-17.526c-1.547 0-2.78.504-3.7 1.512-.92 1.008-1.462 2.402-1.626 4.183h10.072c0-1.84-.41-3.249-1.23-4.227-.82-.979-1.993-1.468-3.516-1.468z" fill="#333"/><path fill="#000" d="M4 2h58v3H4zM89 57h101v3H89z"/></g></svg>